# xmcd
#
# Track frame offsets: 
#        150
#        7152
#        28092
#        50939
#        62911
#        75544
#        106384
#        122974
#        139266
#        157414
#        165480
#
# Disc length: 2266 seconds
#
# Revision: 0
# Processed by: cddbd v1.5.2PL0 Copyright (c) Steve Scherf et al.
# Submitted via: ExactAudioCopy v1.0b3
#
DISCID=a108d80b
DTITLE=Kalle Sändare - Boxen e' klar - CD 6 - Trollkarlen El Zou-Zous 
DTITLE=öden och äventyr
DYEAR=2014
DGENRE=Comedy
TTITLE0=Artistförmedlingen
TTITLE1=Apburen
TTITLE2=El Zou-Zou söker kvinnlig assistent
TTITLE3=Natursnigel
TTITLE4=Hästar på Gotland
TTITLE5=El Zou-Zou söker manlig assistent
TTITLE6=Wärdshuset Pilgrimen
TTITLE7=Resebyrån Aeronut
TTITLE8=Vaccinationsbyrån
TTITLE9=Zoologiska importen
TTITLE10=När går tåget
EXTD=
EXTT0=
EXTT1=
EXTT2=
EXTT3=
EXTT4=
EXTT5=
EXTT6=
EXTT7=
EXTT8=
EXTT9=
EXTT10=
PLAYORDER=
